<svg width="33" height="14" viewBox="0 0 33 14" fill="none" xmlns="http://www.w3.org/2000/svg">
    <path d="M0 13.4423V12.1471C0 11.226 0.492308 10.4616 1.47692 9.85387C2.46154 9.24617 3.72885 8.94233 5.27885 8.94233C5.5077 8.94233 5.75289 8.95338 6.01443 8.9755C6.27597 8.99761 6.55385 9.03367 6.84808 9.08367C6.61347 9.49329 6.44231 9.91348 6.33462 10.3443C6.22693 10.775 6.17308 11.2068 6.17308 11.6394V13.4423H0ZM9 13.4423V11.7548C9 11.1503 9.17548 10.5977 9.52644 10.0971C9.87741 9.59648 10.3952 9.16348 11.0798 8.79809C11.7644 8.43271 12.562 8.15867 13.4726 7.97598C14.3832 7.79328 15.3885 7.70194 16.4885 7.70194C17.6096 7.70194 18.6255 7.79328 19.5361 7.97598C20.4466 8.15867 21.2442 8.43271 21.9289 8.79809C22.6135 9.16348 23.1298 9.59648 23.4779 10.0971C23.826 10.5977 24 11.1503 24 11.7548V13.4423H9ZM26.8269 13.4423V11.6481C26.8269 11.1696 26.7745 10.7187 26.6697 10.2955C26.5649 9.87223 26.4077 9.46829 26.1981 9.08367C26.5116 9.03367 26.7928 8.99761 27.0418 8.9755C27.2909 8.95338 27.5269 8.94233 27.75 8.94233C29.3 8.94233 30.5625 9.24473 31.5375 9.84954C32.5125 10.4543 33 11.2202 33 12.1471V13.4423H26.8269ZM10.5433 11.9423H22.4654V11.625C22.4077 10.9135 21.8245 10.3318 20.7159 9.87983C19.6072 9.42791 18.2019 9.20195 16.5 9.20195C14.7981 9.20195 13.3928 9.42791 12.2841 9.87983C11.1755 10.3318 10.5952 10.9135 10.5433 11.625V11.9423ZM5.27119 7.52886C4.68207 7.52886 4.18029 7.31985 3.76587 6.90182C3.35144 6.48379 3.14423 5.98126 3.14423 5.39424C3.14423 4.81347 3.35324 4.31732 3.77127 3.90578C4.1893 3.49424 4.69183 3.28847 5.27885 3.28847C5.85962 3.28847 6.36058 3.49424 6.78174 3.90578C7.20289 4.31732 7.41347 4.81634 7.41347 5.40285C7.41347 5.97212 7.20817 6.46877 6.79757 6.89281C6.38696 7.31684 5.87817 7.52886 5.27119 7.52886ZM27.75 7.52886C27.175 7.52886 26.6755 7.31684 26.2515 6.89281C25.8274 6.46877 25.6154 5.97212 25.6154 5.40285C25.6154 4.81634 25.8274 4.31732 26.2515 3.90578C26.6755 3.49424 27.1769 3.28847 27.7556 3.28847C28.3519 3.28847 28.8558 3.49424 29.2673 3.90578C29.6789 4.31732 29.8846 4.81347 29.8846 5.39424C29.8846 5.98126 29.6801 6.48379 29.2709 6.90182C28.8618 7.31985 28.3548 7.52886 27.75 7.52886ZM16.5102 6.57694C15.5996 6.57694 14.8221 6.25723 14.1779 5.6178C13.5337 4.97838 13.2115 4.20193 13.2115 3.28847C13.2115 2.35674 13.5313 1.57573 14.1707 0.945435C14.8101 0.315145 15.5865 0 16.5 0C17.4317 0 18.2128 0.314169 18.843 0.942508C19.4733 1.57085 19.7885 2.34944 19.7885 3.27829C19.7885 4.18892 19.4743 4.96636 18.846 5.61059C18.2176 6.25482 17.439 6.57694 16.5102 6.57694ZM16.5144 5.07693C17.0067 5.07693 17.4255 4.89953 17.7707 4.54472C18.1159 4.18991 18.2885 3.76635 18.2885 3.27404C18.2885 2.78174 18.1171 2.36299 17.7743 2.0178C17.4315 1.67261 17.0067 1.50001 16.5 1.50001C16.0173 1.50001 15.5986 1.6714 15.2438 2.01419C14.889 2.35698 14.7115 2.78174 14.7115 3.28847C14.7115 3.77116 14.889 4.18991 15.2438 4.54472C15.5986 4.89953 16.0221 5.07693 16.5144 5.07693Z" fill="#006948"/>
</svg>
