<svg width="27" height="27" viewBox="0 0 27 27" fill="none" xmlns="http://www.w3.org/2000/svg">
    <path d="M13.505 27C11.6382 27 9.8831 26.6458 8.23967 25.9373C6.59624 25.2288 5.16668 24.2673 3.95099 23.0527C2.7353 21.8382 1.77288 20.41 1.06373 18.7681C0.354576 17.1262 0 15.3718 0 13.505C0 11.6382 0.354244 9.8831 1.06273 8.23967C1.77122 6.59624 2.73274 5.16668 3.94729 3.95099C5.16184 2.7353 6.59006 1.77288 8.23195 1.06373C9.87384 0.354576 11.6282 0 13.495 0C15.3618 0 17.1169 0.354244 18.7603 1.06273C20.4038 1.77122 21.8333 2.73274 23.049 3.94728C24.2647 5.16183 25.2271 6.59005 25.9363 8.23195C26.6454 9.87384 27 11.6282 27 13.495C27 15.3618 26.6458 17.1169 25.9373 18.7603C25.2288 20.4038 24.2673 21.8333 23.0527 23.049C21.8382 24.2647 20.41 25.2271 18.7681 25.9363C17.1262 26.6454 15.3718 27 13.505 27ZM12 25.425V22.5C11.175 22.5 10.4688 22.2063 9.88126 21.6188C9.29376 21.0313 9.00001 20.325 9.00001 19.5V18L1.80001 10.8C1.72501 11.25 1.65626 11.7 1.59376 12.15C1.53126 12.6 1.50001 13.05 1.50001 13.5C1.50001 16.525 2.49376 19.175 4.48126 21.45C6.46876 23.725 8.97501 25.05 12 25.425ZM22.35 21.6C23.375 20.475 24.1563 19.2188 24.6938 17.8313C25.2313 16.4438 25.5 14.9964 25.5 13.4892C25.5 11.0274 24.8236 8.77916 23.4707 6.74442C22.1178 4.70968 20.2942 3.24232 18 2.34232V3.00001C18 3.82501 17.7063 4.53126 17.1188 5.11876C16.5313 5.70626 15.825 6.00001 15 6.00001H12V9.00001C12 9.42501 11.8563 9.78126 11.5688 10.0688C11.2813 10.3563 10.925 10.5 10.5 10.5H7.50001V13.5H16.5C16.925 13.5 17.2813 13.6438 17.5688 13.9313C17.8563 14.2188 18 14.575 18 15V19.5H19.5C20.15 19.5 20.7375 19.6938 21.2625 20.0813C21.7875 20.4688 22.15 20.975 22.35 21.6Z" fill="#006948"/>
</svg>
