<svg width="23" height="23" viewBox="0 0 23 23" fill="none" xmlns="http://www.w3.org/2000/svg">
    <path d="M8.3077 14.3077V8.3077H14.3077V14.3077H8.3077ZM9.80771 12.8077H12.8077V9.80771H9.80771V12.8077ZM7.5577 22.6154V20.3077H4.73078C4.04039 20.3077 3.46395 20.0765 3.00145 19.614C2.53895 19.1515 2.3077 18.575 2.3077 17.8846V15.0577H0V13.5577H2.3077V9.05771H0V7.5577H2.3077V4.73078C2.3077 4.04039 2.53895 3.46395 3.00145 3.00145C3.46395 2.53895 4.04039 2.3077 4.73078 2.3077H7.5577V0H9.05771V2.3077H13.5577V0H15.0577V2.3077H17.8846C18.575 2.3077 19.1515 2.53895 19.614 3.00145C20.0765 3.46395 20.3077 4.04039 20.3077 4.73078V7.5577H22.6154V9.05771H20.3077V13.5577H22.6154V15.0577H20.3077V17.8846C20.3077 18.575 20.0765 19.1515 19.614 19.614C19.1515 20.0765 18.575 20.3077 17.8846 20.3077H15.0577V22.6154H13.5577V20.3077H9.05771V22.6154H7.5577ZM17.8846 18.8077C18.1154 18.8077 18.3269 18.7116 18.5192 18.5192C18.7116 18.3269 18.8077 18.1154 18.8077 17.8846V4.73078C18.8077 4.50001 18.7116 4.28847 18.5192 4.09617C18.3269 3.90386 18.1154 3.80771 17.8846 3.80771H4.73078C4.50001 3.80771 4.28847 3.90386 4.09617 4.09617C3.90386 4.28847 3.80771 4.50001 3.80771 4.73078V17.8846C3.80771 18.1154 3.90386 18.3269 4.09617 18.5192C4.28847 18.7116 4.50001 18.8077 4.73078 18.8077H17.8846Z" fill="#006948"/>
</svg>
